<svg width="1440" height="561" viewBox="0 0 1440 561" fill="none" xmlns="http://www.w3.org/2000/svg">
<path d="M607.469 593.213H642.021L658.68 550.113H624.128L607.469 593.213ZM691.381 593.213L654.361 496.546H688.913L725.934 593.213H691.381Z" fill="white"/>
<path d="M611.788 423.893V456.526H622.277V413.426H547.002V423.893H611.788Z" fill="white"/>
<path d="M622.277 359.242H611.788V391.875H547.002V402.342H622.277V359.242Z" fill="white"/>
<path d="M643.872 359.242H633.383V455.91H643.872V359.242Z" fill="white"/>
<path d="M857.973 501.473C857.356 524.254 838.229 543.341 814.783 543.341C791.337 543.341 772.21 524.87 771.593 501.473H761.104C761.721 530.411 785.784 553.808 814.783 553.808C843.782 553.808 867.846 530.411 868.463 501.473H857.973Z" fill="white"/>
<path d="M814.783 530.411C831.442 530.411 845.016 517.481 845.633 500.857H835.144C834.527 511.324 825.272 519.944 814.783 519.944C804.294 519.944 795.039 511.324 794.422 500.857H783.933C784.55 517.481 798.124 530.411 814.783 530.411Z" fill="white"/>
<path d="M926.461 516.249L889.44 419.582H923.993L961.013 516.249H926.461Z" fill="white"/>
<path d="M1072.07 543.956C1049.25 543.341 1030.12 524.253 1030.12 500.856C1030.12 477.459 1048.63 458.372 1072.07 457.756V447.289C1043.08 447.905 1019.63 471.918 1019.63 500.856C1019.63 529.795 1043.08 553.808 1072.07 554.424V543.956Z" fill="white"/>
<path d="M1042.46 500.857C1042.46 517.481 1055.42 531.027 1072.08 531.642V521.175C1061.59 520.559 1052.95 511.324 1052.95 500.857C1052.95 490.389 1061.59 481.154 1072.08 480.538V469.455C1055.42 470.687 1042.46 484.232 1042.46 500.857Z" fill="white"/>
<path d="M1159.69 423.893H1149.2V520.56H1159.69V423.893Z" fill="white"/>
<path d="M1136.86 423.893H1126.37V520.56H1136.86V423.893Z" fill="white"/>
<path d="M746.912 465.146H781.464L798.124 421.43H763.571L746.912 465.146Z" fill="white"/>
<path d="M687.063 367.862V402.342L730.871 418.967V384.487L687.063 367.862Z" fill="white"/>
<path d="M1249.16 394.338H1214.6L1231.26 437.438H1265.81L1249.16 394.338Z" fill="white"/>
<path d="M991.247 380.176H1025.8L1042.46 337.076H1007.91L991.247 380.176ZM1075.16 380.176L1038.14 283.509H1072.69L1109.71 380.176H1075.16Z" fill="white"/>
<path d="M876.484 293.361C893.76 293.361 907.334 307.522 907.334 324.146C907.334 341.386 893.143 354.932 876.484 354.932C859.208 354.932 845.634 340.771 845.634 324.146C845.634 307.522 859.825 293.361 876.484 293.361ZM876.484 304.443C865.378 304.443 856.123 313.679 856.123 324.762C856.123 335.845 865.378 345.081 876.484 345.081C887.59 345.081 896.845 335.845 896.845 324.762C897.462 313.063 888.207 304.443 876.484 304.443ZM903.015 358.626C895.611 364.168 886.356 367.862 876.484 367.862C852.421 367.862 833.294 348.775 833.294 324.762C833.294 300.749 852.421 281.662 876.484 281.662C900.547 281.662 919.675 300.749 919.675 324.762C919.675 334.614 916.589 343.849 910.419 351.238L928.313 369.094L935.717 361.705L923.994 350.006C927.696 342.618 930.164 333.998 930.164 325.378C930.164 295.823 906.1 271.811 876.484 271.811C846.868 271.811 822.805 295.823 822.805 325.378C822.805 354.932 846.868 378.945 876.484 378.945C885.739 378.945 893.76 376.482 901.164 372.788L912.888 384.486L920.292 377.098L903.015 358.626Z" fill="white"/>
<path d="M1255.94 511.323C1273.22 511.323 1286.79 525.485 1286.79 542.109C1286.79 559.349 1272.6 572.895 1255.94 572.895C1238.67 572.895 1225.09 558.734 1225.09 542.109C1225.09 525.485 1239.28 511.323 1255.94 511.323ZM1255.94 521.791C1244.84 521.791 1235.58 531.026 1235.58 542.109C1235.58 553.192 1244.84 562.428 1255.94 562.428C1267.05 562.428 1276.3 553.192 1276.3 542.109C1276.3 531.026 1267.67 521.791 1255.94 521.791ZM1282.47 576.589C1275.07 582.131 1265.82 585.825 1255.94 585.825C1231.88 585.825 1212.75 566.738 1212.75 542.725C1212.75 518.712 1231.88 499.625 1255.94 499.625C1280.01 499.625 1299.13 518.712 1299.13 542.725C1299.13 552.576 1296.05 561.812 1289.88 569.201L1307.77 587.056L1315.18 579.668L1303.45 567.969C1307.15 560.581 1309.62 551.961 1309.62 543.341C1309.62 513.786 1285.56 489.773 1255.94 489.773C1226.33 489.773 1202.26 513.786 1202.26 543.341C1202.26 572.895 1226.33 596.908 1255.94 596.908C1265.2 596.908 1273.22 594.445 1280.62 590.751L1292.35 602.449L1299.75 595.061L1282.47 576.589Z" fill="white"/>
<path d="M1238.05 290.897C1237.43 313.679 1218.31 332.766 1194.86 332.766C1171.41 332.766 1152.29 314.295 1151.67 290.897H1141.18C1141.8 319.836 1165.86 343.233 1194.86 343.233C1223.86 343.233 1247.92 319.836 1248.54 290.897H1238.05Z" fill="white"/>
<path d="M1194.86 320.452C1211.52 320.452 1225.09 307.522 1225.71 290.897H1215.22C1214.6 301.365 1205.35 309.985 1194.86 309.985C1184.37 309.985 1175.11 301.365 1174.5 290.897H1164.01C1164.63 306.906 1178.2 320.452 1194.86 320.452Z" fill="white"/>
<path d="M687.063 327.225C664.233 326.609 645.106 307.522 645.106 284.125C645.106 260.727 663.616 241.64 687.063 241.025V230.557C658.063 231.173 634.617 255.186 634.617 284.125C634.617 313.063 658.063 337.076 687.063 337.692V327.225Z" fill="white"/>
<path d="M657.446 284.124C657.446 300.749 670.404 314.294 687.063 314.91V304.443C676.574 303.827 667.935 294.592 667.935 284.124C667.935 273.657 676.574 264.421 687.063 263.806V253.339C670.404 253.954 657.446 267.5 657.446 284.124Z" fill="white"/>
<path d="M775.295 205.929H764.806V302.596H775.295V205.929Z" fill="white"/>
<path d="M752.466 205.929H741.977V302.596H752.466V205.929Z" fill="white"/>
<path d="M962.865 180.069V148.052H951.759V191.152H1027.03V180.069H962.865Z" fill="white"/>
<path d="M951.759 244.719H962.865V212.702H1027.03V201.619H951.759V244.719Z" fill="white"/>
<path d="M940.652 148.052H930.163V244.719H940.652V148.052Z" fill="white"/>
<path d="M1128.84 253.954H1162.78L1179.43 210.239H1144.88L1128.84 253.954Z" fill="white"/>
<path d="M1070.84 156.672V191.152L1114.03 207.776V173.296L1070.84 156.672Z" fill="white"/>
<path d="M1343.56 398.032V366.015H1333.07V409.115H1408.34V398.032H1343.56Z" fill="white"/>
<path d="M1333.07 462.682H1343.56V430.665H1408.34V419.582H1333.07V462.682Z" fill="white"/>
<path d="M1321.96 366.015H1311.47V462.682H1321.96V366.015Z" fill="white"/>
<path d="M1310.24 308.138L1273.22 211.471H1307.77L1344.79 308.138H1310.24Z" fill="white"/>
<path d="M1257.18 73.55C1274.45 73.55 1288.03 87.7115 1288.03 104.336C1288.03 121.576 1273.84 135.122 1257.18 135.122C1240.52 135.122 1226.33 120.96 1226.33 104.336C1226.33 87.7115 1240.52 73.55 1257.18 73.55ZM1257.18 84.0172C1246.07 84.0172 1236.82 93.2529 1236.82 104.336C1236.82 115.419 1246.07 124.654 1257.18 124.654C1268.28 124.654 1277.54 115.419 1277.54 104.336C1278.15 93.2529 1268.9 84.0172 1257.18 84.0172ZM1283.71 138.816C1276.3 144.357 1267.05 148.052 1257.18 148.052C1233.11 148.052 1213.99 128.964 1213.99 104.952C1213.99 80.9386 1233.11 61.8514 1257.18 61.8514C1281.24 61.8514 1300.37 80.9386 1300.37 104.952C1300.37 114.803 1297.28 124.039 1291.11 131.427L1309.01 149.283L1316.41 141.894L1304.69 130.196C1308.39 122.807 1310.86 114.187 1310.86 105.567C1310.86 76.0129 1286.79 52 1257.18 52C1227.56 52 1203.5 76.0129 1203.5 105.567C1203.5 135.122 1227.56 159.134 1257.18 159.134C1266.43 159.134 1274.45 156.672 1281.86 152.977L1293.58 164.676L1300.98 157.287L1283.71 138.816Z" fill="white"/>
<path d="M862.293 180.069H828.357L844.4 223.169H878.952L862.293 180.069Z" fill="white"/>
<path d="M607.47 163.445H642.022L658.681 120.345H624.129L607.47 163.445ZM691.382 163.445L654.362 66.7773H688.914L725.935 163.445H691.382Z" fill="white"/>
<path d="M1371.32 599.987H1405.87L1422.53 556.887H1387.98L1371.32 599.987ZM1455.24 599.987L1418.21 503.319H1452.77L1489.79 599.987H1455.24Z" fill="white"/>
<path d="M1450.3 260.113C1467.58 260.113 1481.15 274.274 1481.15 290.898C1481.15 308.138 1466.96 321.684 1450.3 321.684C1433.02 321.684 1419.45 307.523 1419.45 290.898C1418.83 273.658 1433.02 260.113 1450.3 260.113ZM1450.3 270.58C1439.19 270.58 1429.94 279.815 1429.94 290.898C1429.94 301.981 1439.19 311.217 1450.3 311.217C1461.41 311.217 1470.66 301.981 1470.66 290.898C1470.66 279.815 1461.41 270.58 1450.3 270.58ZM1476.83 325.378C1469.43 330.92 1460.17 334.614 1450.3 334.614C1426.24 334.614 1407.11 315.527 1407.11 291.514C1407.11 267.501 1426.24 248.414 1450.3 248.414C1474.36 248.414 1493.49 267.501 1493.49 291.514C1493.49 301.365 1490.4 310.601 1484.23 317.99L1502.13 335.846L1509.53 328.457L1497.81 316.758C1501.51 309.37 1503.98 300.75 1503.98 292.13C1503.98 262.575 1479.92 238.562 1450.3 238.562C1420.68 238.562 1396.62 262.575 1396.62 292.13C1396.62 321.684 1420.68 345.697 1450.3 345.697C1459.55 345.697 1467.58 343.234 1474.98 339.54L1486.7 351.238L1494.11 343.85L1476.83 325.378Z" fill="white"/>
<path d="M1370.71 158.519H1405.26L1421.92 115.419H1387.36L1370.71 158.519ZM1454.62 158.519L1417.6 61.8516H1452.15L1489.17 158.519H1454.62Z" fill="white"/>
<path d="M95.9715 501.472C95.3545 524.253 76.2273 543.34 52.7811 543.34C29.3348 543.34 10.2077 524.869 9.59065 501.472H-0.898438C-0.281431 530.41 23.7818 553.808 52.7811 553.808C81.7803 553.808 105.844 530.41 106.461 501.472H95.9715Z" fill="white"/>
<path d="M52.781 530.411C69.4401 530.411 83.0143 517.481 83.6313 500.856H73.1422C72.5252 511.324 63.2701 519.944 52.781 519.944C42.2919 519.944 33.0368 511.324 32.4197 500.856H21.9307C22.5477 517.481 36.1218 530.411 52.781 530.411Z" fill="white"/>
<path d="M164.459 516.249L127.438 419.582H161.991L199.011 516.249H164.459Z" fill="white"/>
<path d="M310.072 543.956C287.243 543.341 268.116 524.253 268.116 500.856C268.116 477.459 286.626 458.372 310.072 457.756V447.289C281.073 447.905 257.627 471.918 257.627 500.856C257.627 529.795 281.073 553.808 310.072 554.424V543.956Z" fill="white"/>
<path d="M280.456 500.857C280.456 517.481 293.413 531.027 310.072 531.642V521.175C299.583 520.559 290.945 511.324 290.945 500.857C290.945 490.389 299.583 481.154 310.072 480.538V469.455C293.413 470.687 280.456 484.232 280.456 500.857Z" fill="white"/>
<path d="M397.687 423.893H387.198V520.56H397.687V423.893Z" fill="white"/>
<path d="M374.858 423.893H364.369V520.56H374.858V423.893Z" fill="white"/>
<path d="M-15.0898 465.146H19.4624L36.1217 421.43H1.5693L-15.0898 465.146Z" fill="white"/>
<path d="M487.153 394.338H452.601L469.26 437.438H503.812L487.153 394.338Z" fill="white"/>
<path d="M229.244 380.176H263.797L280.456 337.076H245.903L229.244 380.176ZM313.157 380.176L276.137 283.509H310.689L347.709 380.176H313.157Z" fill="white"/>
<path d="M115.098 293.361C132.374 293.361 145.948 307.522 145.948 324.146C145.948 341.386 131.757 354.932 115.098 354.932C97.822 354.932 84.2479 340.771 84.2479 324.146C83.6309 307.522 97.822 293.361 115.098 293.361ZM115.098 304.443C103.992 304.443 94.7371 313.679 94.7371 324.762C94.7371 335.845 103.992 345.081 115.098 345.081C126.204 345.081 135.459 335.845 135.459 324.762C135.459 313.063 126.204 304.443 115.098 304.443ZM141.013 358.626C133.608 364.168 124.353 367.862 114.481 367.862C90.418 367.862 71.2908 348.775 71.2908 324.762C71.2908 300.749 90.418 281.662 114.481 281.662C138.544 281.662 157.672 300.749 157.672 324.762C157.672 334.614 154.587 343.849 148.417 351.238L166.31 369.094L173.714 361.705L161.991 350.006C165.693 342.618 168.161 333.998 168.161 325.378C168.161 295.823 144.098 271.811 114.481 271.811C84.865 271.811 60.8018 295.823 60.8018 325.378C60.8018 354.932 84.865 378.945 114.481 378.945C123.736 378.945 131.757 376.482 139.161 372.788L150.885 384.486L158.289 377.098L141.013 358.626Z" fill="white"/>
<path d="M493.94 511.323C511.216 511.323 524.79 525.485 524.79 542.109C524.79 559.349 510.599 572.895 493.94 572.895C477.281 572.895 463.09 558.734 463.09 542.109C463.09 525.485 477.281 511.323 493.94 511.323ZM493.94 521.791C482.834 521.791 473.579 531.026 473.579 542.109C473.579 553.192 482.834 562.428 493.94 562.428C505.046 562.428 514.301 553.192 514.301 542.109C514.918 531.026 505.663 521.791 493.94 521.791ZM520.472 576.589C513.067 582.131 503.812 585.825 493.94 585.825C469.877 585.825 450.75 566.738 450.75 542.725C450.75 518.712 469.877 499.625 493.94 499.625C518.003 499.625 537.131 518.712 537.131 542.725C537.131 552.576 534.046 561.812 527.876 569.201L545.769 587.056L553.173 579.668L541.45 567.969C545.152 560.581 547.62 551.961 547.62 543.341C547.62 513.786 523.556 489.773 493.94 489.773C464.324 489.773 440.261 513.786 440.261 543.341C440.261 572.895 464.324 596.908 493.94 596.908C503.195 596.908 511.216 594.445 518.62 590.751L530.344 602.449L537.748 595.061L520.472 576.589Z" fill="white"/>
<path d="M476.047 290.897C475.43 313.679 456.302 332.766 432.856 332.766C409.41 332.766 390.283 314.295 389.666 290.897H379.177C379.794 319.836 403.857 343.233 432.856 343.233C461.855 343.233 485.919 319.836 486.536 290.897H476.047Z" fill="white"/>
<path d="M432.856 320.452C449.515 320.452 463.089 307.522 463.706 290.897H453.217C452.6 301.365 443.345 309.985 432.856 309.985C422.367 309.985 413.112 301.365 412.495 290.897H402.006C403.24 306.906 416.814 320.452 432.856 320.452Z" fill="white"/>
<path d="M13.2918 205.929H2.80273V302.596H13.2918V205.929Z" fill="white"/>
<path d="M232.946 212.702V244.719H244.052V201.619H168.16V212.702H232.946Z" fill="white"/>
<path d="M244.052 148.052H232.946V180.069H168.16V191.152H244.052V148.052Z" fill="white"/>
<path d="M265.03 148.052H254.541V244.719H265.03V148.052Z" fill="white"/>
<path d="M366.837 253.954H401.389L417.431 210.238H383.496L366.837 253.954Z" fill="white"/>
<path d="M308.838 156.672V191.152L352.645 207.776V173.296L308.838 156.672Z" fill="white"/>
<path d="M548.236 308.138L511.216 211.471H545.768L582.789 308.138H548.236Z" fill="white"/>
<path d="M495.791 73.55C513.067 73.55 526.641 87.7115 526.641 104.336C526.641 121.576 512.45 135.122 495.791 135.122C478.515 135.122 464.94 120.96 464.94 104.336C464.323 87.7115 478.515 73.55 495.791 73.55ZM495.791 84.0172C484.685 84.0172 475.429 93.2529 475.429 104.336C475.429 115.419 484.685 124.654 495.791 124.654C506.897 124.654 516.152 115.419 516.152 104.336C516.152 93.2529 506.897 84.0172 495.791 84.0172ZM521.705 138.816C514.301 144.357 505.046 148.052 495.174 148.052C471.111 148.052 451.983 128.964 451.983 104.952C451.983 80.9386 471.111 61.8514 495.174 61.8514C519.237 61.8514 538.364 80.9386 538.364 104.952C538.364 114.803 535.279 124.039 529.109 131.427L547.002 149.283L554.406 141.894L542.683 130.196C546.385 122.807 548.853 114.187 548.853 105.567C548.853 76.0129 524.79 52 495.174 52C465.557 52 441.494 76.0129 441.494 105.567C441.494 135.122 465.557 159.134 495.174 159.134C504.429 159.134 512.45 156.672 519.854 152.977L531.577 164.676L538.981 157.287L521.705 138.816Z" fill="white"/>
<path d="M100.907 180.069H66.3545L83.0136 223.169H117.566L100.907 180.069Z" fill="white"/>
</svg>
